<mxfile host="app.diagrams.net" modified="2022-08-13T09:38:30.487Z" agent="5.0 (Windows NT 10.0; Win64; x64) AppleWebKit/537.36 (KHTML, like Gecko) Chrome/104.0.0.0 Safari/537.36" etag="N2bSC7BVXi3w1Pju4cr6" version="20.2.3" type="github">
  <diagram name="Page-1" id="c37626ed-c26b-45fb-9056-f9ebc6bb27b6">
    <mxGraphModel dx="2672" dy="1188" grid="1" gridSize="10" guides="1" tooltips="1" connect="1" arrows="1" fold="1" page="1" pageScale="1" pageWidth="1100" pageHeight="850" background="none" math="0" shadow="0">
      <root>
        <mxCell id="0" />
        <mxCell id="1" parent="0" />
        <mxCell id="DheX3hNSlC5GzcRXyFdp-12" value="INSIDE" style="whiteSpace=wrap;html=1;rounded=0;shadow=0;comic=0;strokeWidth=1;fontFamily=Verdana;fontSize=14;fillColor=#f5f5f5;strokeColor=none;verticalAlign=top;fontStyle=1" vertex="1" parent="1">
          <mxGeometry x="-220" y="160" width="910" height="910" as="geometry" />
        </mxCell>
        <mxCell id="1c7a67bf8fd3230f-64" style="edgeStyle=none;html=1;labelBackgroundColor=none;startFill=0;endArrow=none;endFill=0;strokeWidth=2;fontFamily=Verdana;fontSize=12;" parent="1" source="DheX3hNSlC5GzcRXyFdp-6" target="DheX3hNSlC5GzcRXyFdp-1" edge="1">
          <mxGeometry relative="1" as="geometry">
            <mxPoint x="329" y="174.5316030534354" as="sourcePoint" />
            <mxPoint x="210" y="159.99725190839712" as="targetPoint" />
          </mxGeometry>
        </mxCell>
        <mxCell id="1c7a67bf8fd3230f-65" style="edgeStyle=none;html=1;labelBackgroundColor=none;startFill=0;endArrow=none;endFill=0;strokeWidth=2;fontFamily=Verdana;fontSize=12;" parent="1" source="DheX3hNSlC5GzcRXyFdp-6" target="DheX3hNSlC5GzcRXyFdp-4" edge="1">
          <mxGeometry relative="1" as="geometry">
            <mxPoint x="179" y="372.9971065989852" as="sourcePoint" />
            <mxPoint x="59" y="424.7737563451778" as="targetPoint" />
          </mxGeometry>
        </mxCell>
        <mxCell id="DheX3hNSlC5GzcRXyFdp-1" value="Network" style="ellipse;shape=cloud;whiteSpace=wrap;html=1;rounded=0;shadow=0;comic=0;strokeWidth=1;fontFamily=Verdana;fontSize=12;" vertex="1" parent="1">
          <mxGeometry x="-20" width="120" height="80" as="geometry" />
        </mxCell>
        <mxCell id="DheX3hNSlC5GzcRXyFdp-4" value="" style="shape=mxgraph.cisco.wireless.wlan_controller;sketch=0;html=1;pointerEvents=1;dashed=0;fillColor=#036897;strokeColor=#ffffff;strokeWidth=2;verticalLabelPosition=bottom;verticalAlign=top;align=center;outlineConnect=0;" vertex="1" parent="1">
          <mxGeometry x="-160" y="420" width="101" height="56" as="geometry" />
        </mxCell>
        <mxCell id="DheX3hNSlC5GzcRXyFdp-5" value="" style="shape=mxgraph.cisco.wireless.wireless_transport;sketch=0;html=1;pointerEvents=1;dashed=0;fillColor=#036897;strokeColor=#ffffff;strokeWidth=2;verticalLabelPosition=bottom;verticalAlign=top;align=center;outlineConnect=0;" vertex="1" parent="1">
          <mxGeometry x="540" y="398" width="77" height="54" as="geometry" />
        </mxCell>
        <mxCell id="DheX3hNSlC5GzcRXyFdp-6" value="" style="shape=mxgraph.cisco.switches.layer_3_switch;sketch=0;html=1;pointerEvents=1;dashed=0;fillColor=#036897;strokeColor=#ffffff;strokeWidth=2;verticalLabelPosition=bottom;verticalAlign=top;align=center;outlineConnect=0;" vertex="1" parent="1">
          <mxGeometry x="197.5" y="260" width="64" height="64" as="geometry" />
        </mxCell>
        <mxCell id="DheX3hNSlC5GzcRXyFdp-7" value="" style="shape=mxgraph.cisco.switches.layer_2_remote_switch;sketch=0;html=1;pointerEvents=1;dashed=0;fillColor=#036897;strokeColor=#ffffff;strokeWidth=2;verticalLabelPosition=bottom;verticalAlign=top;align=center;outlineConnect=0;" vertex="1" parent="1">
          <mxGeometry x="179" y="600" width="101" height="50" as="geometry" />
        </mxCell>
        <mxCell id="DheX3hNSlC5GzcRXyFdp-8" value="" style="shape=mxgraph.cisco.wireless.wireless_transport;sketch=0;html=1;pointerEvents=1;dashed=0;fillColor=#036897;strokeColor=#ffffff;strokeWidth=2;verticalLabelPosition=bottom;verticalAlign=top;align=center;outlineConnect=0;" vertex="1" parent="1">
          <mxGeometry x="191" y="785" width="77" height="54" as="geometry" />
        </mxCell>
        <mxCell id="DheX3hNSlC5GzcRXyFdp-9" value="" style="sketch=0;pointerEvents=1;shadow=0;dashed=0;html=1;strokeColor=none;fillColor=#505050;labelPosition=center;verticalLabelPosition=bottom;verticalAlign=top;outlineConnect=0;align=center;shape=mxgraph.office.devices.laptop;" vertex="1" parent="1">
          <mxGeometry x="31" y="930" width="58" height="34" as="geometry" />
        </mxCell>
        <mxCell id="DheX3hNSlC5GzcRXyFdp-10" value="" style="sketch=0;pointerEvents=1;shadow=0;dashed=0;html=1;strokeColor=none;fillColor=#505050;labelPosition=center;verticalLabelPosition=bottom;verticalAlign=top;outlineConnect=0;align=center;shape=mxgraph.office.devices.laptop;" vertex="1" parent="1">
          <mxGeometry x="369.5" y="930" width="58" height="34" as="geometry" />
        </mxCell>
        <mxCell id="DheX3hNSlC5GzcRXyFdp-16" style="edgeStyle=none;html=1;labelBackgroundColor=none;startFill=0;endArrow=none;endFill=0;strokeWidth=2;fontFamily=Verdana;fontSize=12;" edge="1" parent="1" source="DheX3hNSlC5GzcRXyFdp-6" target="DheX3hNSlC5GzcRXyFdp-5">
          <mxGeometry relative="1" as="geometry">
            <mxPoint x="207.5" y="337.67551622418887" as="sourcePoint" />
            <mxPoint x="104.89705882352928" y="420" as="targetPoint" />
          </mxGeometry>
        </mxCell>
        <mxCell id="DheX3hNSlC5GzcRXyFdp-17" style="edgeStyle=none;html=1;labelBackgroundColor=none;startFill=0;endArrow=none;endFill=0;strokeWidth=2;fontFamily=Verdana;fontSize=12;" edge="1" parent="1" source="DheX3hNSlC5GzcRXyFdp-7">
          <mxGeometry relative="1" as="geometry">
            <mxPoint x="168.1" y="351.99994082840243" as="sourcePoint" />
            <mxPoint x="230" y="320" as="targetPoint" />
          </mxGeometry>
        </mxCell>
        <mxCell id="DheX3hNSlC5GzcRXyFdp-18" style="edgeStyle=none;html=1;labelBackgroundColor=none;startFill=0;endArrow=none;endFill=0;strokeWidth=2;fontFamily=Verdana;fontSize=12;" edge="1" parent="1" source="DheX3hNSlC5GzcRXyFdp-8" target="DheX3hNSlC5GzcRXyFdp-7">
          <mxGeometry relative="1" as="geometry">
            <mxPoint x="228.78098360655736" y="820" as="sourcePoint" />
            <mxPoint x="229.24" y="540" as="targetPoint" />
          </mxGeometry>
        </mxCell>
        <mxCell id="DheX3hNSlC5GzcRXyFdp-19" value="&lt;b&gt;SWITCH 3750G&lt;br&gt;10.173.120.51/23&lt;/b&gt;" style="text;html=1;strokeColor=none;fillColor=none;align=center;verticalAlign=middle;whiteSpace=wrap;rounded=0;" vertex="1" parent="1">
          <mxGeometry x="170" y="220" width="150" height="30" as="geometry" />
        </mxCell>
        <mxCell id="DheX3hNSlC5GzcRXyFdp-22" value="&lt;b&gt;G1/0/51&lt;/b&gt;" style="text;html=1;strokeColor=none;fillColor=none;align=center;verticalAlign=middle;whiteSpace=wrap;rounded=0;rotation=60;" vertex="1" parent="1">
          <mxGeometry x="150" y="180" width="60" height="30" as="geometry" />
        </mxCell>
        <mxCell id="DheX3hNSlC5GzcRXyFdp-23" value="&lt;div style=&quot;text-align: center;&quot;&gt;&lt;b style=&quot;background-color: initial;&quot;&gt;WLC&lt;/b&gt;&lt;/div&gt;&lt;b&gt;&lt;div style=&quot;&quot;&gt;&lt;b style=&quot;background-color: initial;&quot;&gt;IP MANAGER: 10.173.122.100/24&lt;/b&gt;&lt;/div&gt;&lt;div style=&quot;&quot;&gt;&lt;b style=&quot;background-color: initial;&quot;&gt;IP NOI BO: 10.173.120.52/23&lt;/b&gt;&lt;/div&gt;&lt;div style=&quot;&quot;&gt;&lt;b style=&quot;background-color: initial;&quot;&gt;IP GUEST: 192.168.0.2/24&lt;/b&gt;&lt;/div&gt;&lt;div style=&quot;&quot;&gt;&lt;span style=&quot;font-weight: 400;&quot;&gt;admin/ C1sco@2906&lt;/span&gt;&lt;b style=&quot;background-color: initial;&quot;&gt;&lt;br&gt;&lt;/b&gt;&lt;/div&gt;&lt;/b&gt;" style="text;html=1;strokeColor=none;fillColor=none;align=left;verticalAlign=middle;whiteSpace=wrap;rounded=0;" vertex="1" parent="1">
          <mxGeometry x="-214.5" y="500.5" width="210" height="99" as="geometry" />
        </mxCell>
        <mxCell id="DheX3hNSlC5GzcRXyFdp-24" value="&lt;b&gt;PORT 1 to G1/0/18&lt;br&gt;&lt;/b&gt;" style="text;html=1;strokeColor=none;fillColor=none;align=center;verticalAlign=middle;whiteSpace=wrap;rounded=0;rotation=-25;" vertex="1" parent="1">
          <mxGeometry x="-40" y="340" width="150" height="39" as="geometry" />
        </mxCell>
        <mxCell id="DheX3hNSlC5GzcRXyFdp-25" value="&lt;b&gt;G1/0/1,G1/0/3-6 to APx5&lt;br&gt;&lt;/b&gt;" style="text;html=1;strokeColor=none;fillColor=none;align=center;verticalAlign=middle;whiteSpace=wrap;rounded=0;rotation=20;" vertex="1" parent="1">
          <mxGeometry x="350" y="324" width="150" height="39" as="geometry" />
        </mxCell>
        <mxCell id="DheX3hNSlC5GzcRXyFdp-26" value="&lt;b&gt;Access Point&lt;br&gt;10.173.122.101; 10.173.122.103-106&lt;br&gt;&lt;/b&gt;" style="text;html=1;strokeColor=none;fillColor=none;align=center;verticalAlign=middle;whiteSpace=wrap;rounded=0;" vertex="1" parent="1">
          <mxGeometry x="467.62" y="476" width="221.75" height="30" as="geometry" />
        </mxCell>
        <mxCell id="DheX3hNSlC5GzcRXyFdp-27" value="&lt;span&gt;G1/0/2 to G0/1&lt;br&gt;&lt;/span&gt;" style="text;html=1;strokeColor=none;fillColor=none;align=center;verticalAlign=middle;whiteSpace=wrap;rounded=0;rotation=90;fontStyle=1" vertex="1" parent="1">
          <mxGeometry x="181.5" y="461.5" width="169" height="39" as="geometry" />
        </mxCell>
        <mxCell id="DheX3hNSlC5GzcRXyFdp-28" value="&lt;b&gt;Access Point&lt;br&gt;10.173.122.2; 10.173.120.9&lt;br&gt;&lt;/b&gt;" style="text;html=1;strokeColor=none;fillColor=none;align=center;verticalAlign=middle;whiteSpace=wrap;rounded=0;" vertex="1" parent="1">
          <mxGeometry x="146.25" y="860" width="166.5" height="30" as="geometry" />
        </mxCell>
        <mxCell id="DheX3hNSlC5GzcRXyFdp-29" value="&lt;b&gt;192.168.0.x/23&lt;/b&gt;&lt;span style=&quot;color: rgba(0, 0, 0, 0); font-family: monospace; font-size: 0px; text-align: start;&quot;&gt;%3CmxGraphModel%3E%3Croot%3E%3CmxCell%20id%3D%220%22%2F%3E%3CmxCell%20id%3D%221%22%20parent%3D%220%22%2F%3E%3CmxCell%20id%3D%222%22%20value%3D%22%26lt%3Bb%26gt%3BAccess%20Point%26lt%3Bbr%26gt%3B10.173.120.8%20-%2010.173.120.9%26lt%3Bbr%26gt%3B%26lt%3B%2Fb%26gt%3B%22%20style%3D%22text%3Bhtml%3D1%3BstrokeColor%3Dnone%3BfillColor%3Dnone%3Balign%3Dcenter%3BverticalAlign%3Dmiddle%3BwhiteSpace%3Dwrap%3Brounded%3D0%3B%22%20vertex%3D%221%22%20parent%3D%221%22%3E%3CmxGeometry%20x%3D%22146.25%22%20y%3D%22860%22%20width%3D%22166.5%22%20height%3D%2230%22%20as%3D%22geometry%22%2F%3E%3C%2FmxCell%3E%3C%2Froot%3E%3C%2FmxGraphModel%3E&lt;/span&gt;&lt;b&gt;&lt;br&gt;&lt;/b&gt;" style="text;html=1;strokeColor=none;fillColor=none;align=center;verticalAlign=middle;whiteSpace=wrap;rounded=0;" vertex="1" parent="1">
          <mxGeometry x="315.25" y="980" width="166.5" height="30" as="geometry" />
        </mxCell>
        <mxCell id="DheX3hNSlC5GzcRXyFdp-30" value="&lt;b&gt;192.168.0.x/23&lt;/b&gt;&lt;span style=&quot;color: rgba(0, 0, 0, 0); font-family: monospace; font-size: 0px; text-align: start;&quot;&gt;%3CmxGraphModel%3E%3Croot%3E%3CmxCell%20id%3D%220%22%2F%3E%3CmxCell%20id%3D%221%22%20parent%3D%220%22%2F%3E%3CmxCell%20id%3D%222%22%20value%3D%22%26lt%3Bb%26gt%3BAccess%20Point%26lt%3Bbr%26gt%3B10.173.120.8%20-%2010.173.120.9%26lt%3Bbr%26gt%3B%26lt%3B%2Fb%26gt%3B%22%20style%3D%22text%3Bhtml%3D1%3BstrokeColor%3Dnone%3BfillColor%3Dnone%3Balign%3Dcenter%3BverticalAlign%3Dmiddle%3BwhiteSpace%3Dwrap%3Brounded%3D0%3B%22%20vertex%3D%221%22%20parent%3D%221%22%3E%3CmxGeometry%20x%3D%22146.25%22%20y%3D%22860%22%20width%3D%22166.5%22%20height%3D%2230%22%20as%3D%22geometry%22%2F%3E%3C%2FmxCell%3E%3C%2Froot%3E%3C%2FmxGraphModel%3E&lt;/span&gt;&lt;b&gt;&lt;br&gt;&lt;/b&gt;" style="text;html=1;strokeColor=none;fillColor=none;align=center;verticalAlign=middle;whiteSpace=wrap;rounded=0;" vertex="1" parent="1">
          <mxGeometry x="-23.25" y="980" width="166.5" height="30" as="geometry" />
        </mxCell>
        <UserObject label="" link="https://github.com/minhnghia2k3/Network-Topology/blob/main/wlc_backup_dltb" linkTarget="_blank" id="DheX3hNSlC5GzcRXyFdp-36">
          <mxCell style="shape=mxgraph.cisco.wireless.wlan_controller;sketch=0;html=1;pointerEvents=1;dashed=0;fillColor=#036897;strokeColor=#ffffff;strokeWidth=2;verticalLabelPosition=bottom;verticalAlign=top;align=center;outlineConnect=0;" vertex="1" parent="1">
            <mxGeometry x="820" y="180" width="101" height="56" as="geometry" />
          </mxCell>
        </UserObject>
        <UserObject label="" link="https://github.com/minhnghia2k3/Network-Topology/blob/main/qtc-dltb-confg" linkTarget="_blank" id="DheX3hNSlC5GzcRXyFdp-37">
          <mxCell style="shape=mxgraph.cisco.switches.layer_3_switch;sketch=0;html=1;pointerEvents=1;dashed=0;fillColor=#036897;strokeColor=#ffffff;strokeWidth=2;verticalLabelPosition=bottom;verticalAlign=top;align=center;outlineConnect=0;" vertex="1" parent="1">
            <mxGeometry x="839.75" y="412" width="61.5" height="64" as="geometry" />
          </mxCell>
        </UserObject>
        <mxCell id="DheX3hNSlC5GzcRXyFdp-38" value="&lt;b&gt;Backup WLC- 12/08/2022&lt;br&gt;&lt;/b&gt;" style="text;html=1;strokeColor=none;fillColor=none;align=center;verticalAlign=middle;whiteSpace=wrap;rounded=0;rotation=0;" vertex="1" parent="1">
          <mxGeometry x="795.5" y="130" width="150" height="39" as="geometry" />
        </mxCell>
        <mxCell id="DheX3hNSlC5GzcRXyFdp-39" value="&lt;b&gt;Backup Switch 3750G- 12/08/2022&lt;br&gt;&lt;/b&gt;" style="text;html=1;strokeColor=none;fillColor=none;align=center;verticalAlign=middle;whiteSpace=wrap;rounded=0;rotation=0;" vertex="1" parent="1">
          <mxGeometry x="760" y="359" width="214.5" height="39" as="geometry" />
        </mxCell>
      </root>
    </mxGraphModel>
  </diagram>
</mxfile>
